<svg width="192" height="39" viewBox="0 0 192 39" fill="none" xmlns="http://www.w3.org/2000/svg">
<g clip-path="url(#clip0_140_52)">
<path d="M35.2184 29.8971V39H8.86262V9.10481H0V0H17.9764V29.8971H35.2184Z" fill="#5DBBF4"/>
<path d="M44.2066 0V9.10481H35.3459V19.5H26.2302V0H44.2066Z" fill="#3386FF"/>
<path d="M61.8158 13.947V14.6692H57.6167V25.1328H56.7414V14.6692H52.5422V13.947H61.8158Z" fill="#3386FF"/>
<path d="M68.1116 13.947H70.9808C72.1833 13.947 73.1023 14.2074 73.7378 14.7281C74.0494 14.9818 74.2976 15.3045 74.4627 15.6706C74.6279 16.0368 74.7053 16.4363 74.6891 16.8375C74.6891 18.1298 73.9788 19.0376 72.5581 19.5608C72.9272 19.7356 73.4238 20.3058 74.0479 21.2712L76.5937 25.1328H75.5681L73.6179 22.0674C72.9646 21.0412 72.4573 20.4014 72.0958 20.148C71.7323 19.8953 71.1996 19.7679 70.5013 19.7679H68.9792V25.1328H68.1135L68.1116 13.947ZM68.9773 14.6692V19.0401H70.8362C71.7812 19.0401 72.5042 18.8501 73.0052 18.47C73.252 18.2803 73.4491 18.0338 73.5796 17.7515C73.7102 17.4692 73.7703 17.1595 73.7549 16.8489C73.7692 16.539 73.7074 16.2302 73.5747 15.9496C73.442 15.669 73.2426 15.4251 72.9938 15.2393C72.4864 14.8592 71.7571 14.6692 70.8057 14.6692H68.9773Z" fill="#3386FF"/>
<path d="M86.8681 13.8672L92.0452 25.1328H91.1357L89.3605 21.2579H83.8847L82.1209 25.1252H81.2114L86.3886 13.8596L86.8681 13.8672ZM89.0352 20.5452L86.6226 15.2773L84.2176 20.5452H89.0352Z" fill="#3386FF"/>
<path d="M98.3203 13.947H102.24C104.222 13.947 105.736 14.4677 106.781 15.5092C107.827 16.5506 108.349 17.8967 108.347 19.5475C108.347 21.1654 107.83 22.5014 106.797 23.5554C105.763 24.6095 104.295 25.1366 102.392 25.1366H98.3203V13.947ZM99.186 14.6692V24.4125H102.344C103.793 24.4125 104.998 23.9691 105.96 23.0822C106.921 22.1954 107.407 21.0171 107.417 19.5475C107.417 18.1133 106.941 16.9421 105.99 16.0337C105.039 15.1253 103.802 14.6704 102.28 14.6692H99.186Z" fill="#3386FF"/>
<path d="M121.521 13.947V14.6692H116.278V19.1446H121.384V19.8725H116.278V24.4125H121.649V25.1328H115.408V13.947H121.521Z" fill="#3386FF"/>
<path d="M128.304 13.947H129.908V23.6752H134.95V25.1328H128.304V13.947Z" fill="#3386FF"/>
<path d="M144.852 13.8843H145.98L150.999 25.1327H149.359L147.868 21.8279H143.09L141.69 25.1422H140.042L144.852 13.8843ZM147.207 20.3931L145.402 16.3415L143.726 20.3931H147.207Z" fill="#3386FF"/>
<path d="M162.083 13.947H164.029L159.893 19.2149V25.1328H158.249V19.2149L154.114 13.947H156.049L159.046 17.8029L162.083 13.947Z" fill="#3386FF"/>
<path d="M170.188 13.947H176.537V15.3666H171.792V18.7873H176.375V20.2202H171.792V23.6904H176.689V25.1157H170.188V13.947Z" fill="#3386FF"/>
<path d="M183.37 25.1328V13.947H186.174C187.307 13.947 188.206 14.2276 188.872 14.7889C189.202 15.0675 189.463 15.418 189.636 15.8134C189.809 16.2087 189.889 16.6384 189.869 17.0694C189.892 17.6705 189.721 18.263 189.38 18.759C189.039 19.255 188.548 19.6282 187.978 19.8231C188.372 20.0921 188.726 20.4159 189.028 20.7847C189.555 21.4595 190.036 22.168 190.47 22.9055C190.861 23.539 191.174 24.0166 191.408 24.3384L192.002 25.1404H190.099L189.61 24.403C189.595 24.3764 189.563 24.3308 189.515 24.2662L189.203 23.8253L188.707 23.01L188.17 22.1358C187.898 21.746 187.593 21.3792 187.261 21.0393C187.04 20.8106 186.789 20.613 186.515 20.4521C186.291 20.333 185.918 20.2728 185.394 20.2716H184.977V25.1404L183.37 25.1328ZM185.453 15.3096H184.972V18.8387H185.581C186.394 18.8387 186.951 18.7696 187.253 18.6315C187.547 18.4995 187.793 18.2798 187.957 18.0025C188.127 17.7151 188.215 17.3863 188.21 17.0523C188.213 16.7149 188.115 16.3843 187.93 16.1021C187.742 15.818 187.464 15.6052 187.141 15.4977C186.8 15.3666 186.239 15.3096 185.453 15.3096V15.3096Z" fill="#3386FF"/>
</g>
<defs>
<clipPath id="clip0_140_52">
<rect width="192" height="39" fill="white"/>
</clipPath>
</defs>
</svg>
